<svg width="24" height="24" viewBox="0 0 24 24" fill="none" xmlns="http://www.w3.org/2000/svg">
	<path d="M22.3903 6.12641C21.3172 4.24172 19.8617 2.74961 18.0232 1.64975C16.1845 0.549822 14.1772 0 11.9999 0C9.82282 0 7.81486 0.54999 5.97655 1.64975C4.13797 2.74956 2.68246 4.24172 1.60939 6.12641C0.536482 8.01104 0 10.0691 0 12.3005C0 14.9808 0.762885 17.3911 2.28904 19.5319C3.81503 21.6728 5.78638 23.1543 8.20293 23.9764C8.48422 24.0299 8.69245 23.9923 8.82785 23.8644C8.96329 23.7364 9.03093 23.5761 9.03093 23.3841C9.03093 23.3521 9.02825 23.0639 9.02305 22.5193C9.01769 21.9746 9.01517 21.4994 9.01517 21.094L8.65579 21.1577C8.42665 21.2008 8.13758 21.219 7.78859 21.2138C7.43977 21.2088 7.07764 21.1714 6.70271 21.1017C6.32762 21.0326 5.97874 20.8725 5.6558 20.6215C5.33302 20.3706 5.10388 20.0422 4.96844 19.6367L4.81219 19.2681C4.70805 19.0227 4.54409 18.7502 4.32009 18.4514C4.0961 18.1523 3.86959 17.9496 3.64045 17.8428L3.53105 17.7625C3.45816 17.7092 3.39051 17.6448 3.32796 17.5702C3.26546 17.4955 3.21867 17.4208 3.18742 17.346C3.15612 17.2711 3.18206 17.2096 3.26552 17.1614C3.34898 17.1133 3.4998 17.0899 3.71865 17.0899L4.03103 17.1377C4.23937 17.1805 4.49708 17.3084 4.80448 17.522C5.11171 17.7356 5.36427 18.0131 5.56222 18.3547C5.80192 18.7926 6.09071 19.1262 6.42941 19.3559C6.76784 19.5855 7.10906 19.7001 7.45274 19.7001C7.79642 19.7001 8.09325 19.6734 8.34335 19.6202C8.59318 19.5668 8.82757 19.4866 9.04642 19.3799C9.14017 18.6642 9.39541 18.1143 9.81193 17.73C9.21826 17.6661 8.68452 17.5697 8.21042 17.4417C7.7366 17.3134 7.24697 17.1053 6.74184 16.8167C6.23645 16.5285 5.81719 16.1707 5.48396 15.7438C5.15068 15.3166 4.87715 14.7559 4.66378 14.062C4.45029 13.3678 4.34352 12.5671 4.34352 11.6595C4.34352 10.3673 4.75506 9.26765 5.57798 8.35997C5.19249 7.38846 5.22888 6.29936 5.68727 5.0928C5.98936 4.99659 6.43735 5.06879 7.03102 5.30894C7.6248 5.54921 8.05954 5.75504 8.33569 5.92569C8.61184 6.09629 8.8331 6.24085 8.99979 6.3581C9.96872 6.08058 10.9686 5.94179 11.9998 5.94179C13.0309 5.94179 14.0311 6.08058 15 6.3581L15.5938 5.97388C15.9998 5.71751 16.4792 5.48257 17.031 5.269C17.5831 5.05555 18.0052 4.99675 18.297 5.09296C18.7656 6.29959 18.8074 7.38863 18.4217 8.36014C19.2446 9.26782 19.6563 10.3677 19.6563 11.6597C19.6563 12.5673 19.5492 13.3705 19.336 14.07C19.1226 14.7696 18.8467 15.3298 18.5083 15.7518C18.1695 16.1737 17.7475 16.5288 17.2424 16.8169C16.7372 17.1052 16.2474 17.3134 15.7735 17.4416C15.2995 17.5698 14.7658 17.6662 14.1721 17.7303C14.7136 18.2106 14.9843 18.9688 14.9843 20.0045V23.3837C14.9843 23.5756 15.0495 23.7359 15.1798 23.864C15.31 23.9918 15.5156 24.0295 15.7969 23.9759C18.2138 23.1539 20.1851 21.6724 21.7111 19.5314C23.2368 17.3907 24 14.9804 24 12.3C23.9995 10.0689 23.4627 8.01104 22.3903 6.12641Z" fill="black"/>
</svg>
